<mxfile host="app.diagrams.net" modified="2023-12-22T20:05:38.674Z" agent="Mozilla/5.0 (Windows NT 10.0; Win64; x64) AppleWebKit/537.36 (KHTML, like Gecko) Chrome/120.0.0.0 Safari/537.36" etag="wBu3w0f4u7NTgv9U3VLV" version="22.1.11" type="device">
  <diagram name="Page-1" id="aXvGiVzAKuOY3RwWyZ6z">
    <mxGraphModel dx="1434" dy="792" grid="1" gridSize="10" guides="1" tooltips="1" connect="1" arrows="1" fold="1" page="1" pageScale="1" pageWidth="850" pageHeight="1100" math="0" shadow="0">
      <root>
        <mxCell id="0" />
        <mxCell id="1" parent="0" />
        <mxCell id="8bmVJW7_Pttk3_VtEQQM-1" style="edgeStyle=orthogonalEdgeStyle;rounded=0;orthogonalLoop=1;jettySize=auto;html=1;exitX=1;exitY=0.5;exitDx=0;exitDy=0;entryX=0;entryY=0.5;entryDx=0;entryDy=0;" parent="1" source="8bmVJW7_Pttk3_VtEQQM-2" target="8bmVJW7_Pttk3_VtEQQM-4" edge="1">
          <mxGeometry relative="1" as="geometry" />
        </mxCell>
        <mxCell id="8bmVJW7_Pttk3_VtEQQM-2" value="&lt;font style=&quot;font-size: 14px;&quot;&gt;Protocol&lt;/font&gt;" style="rounded=1;whiteSpace=wrap;html=1;" parent="1" vertex="1">
          <mxGeometry x="330" y="30" width="210" height="70" as="geometry" />
        </mxCell>
        <mxCell id="8bmVJW7_Pttk3_VtEQQM-3" style="edgeStyle=orthogonalEdgeStyle;rounded=0;orthogonalLoop=1;jettySize=auto;html=1;exitX=0.5;exitY=1;exitDx=0;exitDy=0;entryX=0.5;entryY=0;entryDx=0;entryDy=0;" parent="1" source="8bmVJW7_Pttk3_VtEQQM-4" target="8bmVJW7_Pttk3_VtEQQM-6" edge="1">
          <mxGeometry relative="1" as="geometry" />
        </mxCell>
        <mxCell id="8bmVJW7_Pttk3_VtEQQM-4" value="&lt;font style=&quot;font-size: 14px;&quot;&gt;Search Strategy&lt;br&gt;&lt;/font&gt;" style="rounded=1;whiteSpace=wrap;html=1;" parent="1" vertex="1">
          <mxGeometry x="600" y="30" width="210" height="70" as="geometry" />
        </mxCell>
        <mxCell id="8bmVJW7_Pttk3_VtEQQM-5" style="edgeStyle=orthogonalEdgeStyle;rounded=0;orthogonalLoop=1;jettySize=auto;html=1;exitX=0;exitY=0.5;exitDx=0;exitDy=0;entryX=1;entryY=0.5;entryDx=0;entryDy=0;" parent="1" source="8bmVJW7_Pttk3_VtEQQM-6" target="8bmVJW7_Pttk3_VtEQQM-8" edge="1">
          <mxGeometry relative="1" as="geometry" />
        </mxCell>
        <mxCell id="8bmVJW7_Pttk3_VtEQQM-6" value="&lt;font style=&quot;font-size: 14px;&quot;&gt;Research Screen and Selection&lt;br&gt;&lt;/font&gt;" style="rounded=1;whiteSpace=wrap;html=1;" parent="1" vertex="1">
          <mxGeometry x="600" y="150" width="210" height="70" as="geometry" />
        </mxCell>
        <mxCell id="8bmVJW7_Pttk3_VtEQQM-7" style="edgeStyle=orthogonalEdgeStyle;rounded=0;orthogonalLoop=1;jettySize=auto;html=1;exitX=0;exitY=0.5;exitDx=0;exitDy=0;entryX=1;entryY=0.5;entryDx=0;entryDy=0;" parent="1" source="8bmVJW7_Pttk3_VtEQQM-8" target="8bmVJW7_Pttk3_VtEQQM-10" edge="1">
          <mxGeometry relative="1" as="geometry" />
        </mxCell>
        <mxCell id="8bmVJW7_Pttk3_VtEQQM-8" value="&lt;font style=&quot;font-size: 14px;&quot;&gt;Data Extraction&lt;br&gt;&lt;/font&gt;" style="rounded=1;whiteSpace=wrap;html=1;" parent="1" vertex="1">
          <mxGeometry x="330" y="150" width="210" height="70" as="geometry" />
        </mxCell>
        <mxCell id="8bmVJW7_Pttk3_VtEQQM-9" style="edgeStyle=orthogonalEdgeStyle;rounded=0;orthogonalLoop=1;jettySize=auto;html=1;exitX=0.5;exitY=1;exitDx=0;exitDy=0;entryX=0.5;entryY=0;entryDx=0;entryDy=0;" parent="1" source="8bmVJW7_Pttk3_VtEQQM-10" target="8bmVJW7_Pttk3_VtEQQM-12" edge="1">
          <mxGeometry relative="1" as="geometry" />
        </mxCell>
        <mxCell id="8bmVJW7_Pttk3_VtEQQM-10" value="&lt;font style=&quot;font-size: 14px;&quot;&gt;Bias Risk Assessment&lt;br&gt;&lt;/font&gt;" style="rounded=1;whiteSpace=wrap;html=1;" parent="1" vertex="1">
          <mxGeometry x="50" y="150" width="210" height="70" as="geometry" />
        </mxCell>
        <mxCell id="8bmVJW7_Pttk3_VtEQQM-11" style="edgeStyle=orthogonalEdgeStyle;rounded=0;orthogonalLoop=1;jettySize=auto;html=1;exitX=1;exitY=0.5;exitDx=0;exitDy=0;" parent="1" source="8bmVJW7_Pttk3_VtEQQM-12" target="8bmVJW7_Pttk3_VtEQQM-16" edge="1">
          <mxGeometry relative="1" as="geometry" />
        </mxCell>
        <mxCell id="8bmVJW7_Pttk3_VtEQQM-12" value="&lt;font style=&quot;font-size: 14px;&quot;&gt;Data Synthesis&lt;br&gt;&lt;/font&gt;" style="rounded=1;whiteSpace=wrap;html=1;" parent="1" vertex="1">
          <mxGeometry x="50" y="270" width="210" height="70" as="geometry" />
        </mxCell>
        <mxCell id="8bmVJW7_Pttk3_VtEQQM-13" style="edgeStyle=orthogonalEdgeStyle;rounded=0;orthogonalLoop=1;jettySize=auto;html=1;exitX=1;exitY=0.5;exitDx=0;exitDy=0;" parent="1" source="8bmVJW7_Pttk3_VtEQQM-14" target="8bmVJW7_Pttk3_VtEQQM-2" edge="1">
          <mxGeometry relative="1" as="geometry" />
        </mxCell>
        <mxCell id="8bmVJW7_Pttk3_VtEQQM-14" value="&lt;font style=&quot;font-size: 14px;&quot;&gt;Formulation of Research Questions&lt;/font&gt;" style="rounded=1;whiteSpace=wrap;html=1;" parent="1" vertex="1">
          <mxGeometry x="50" y="30" width="210" height="70" as="geometry" />
        </mxCell>
        <mxCell id="8bmVJW7_Pttk3_VtEQQM-15" style="edgeStyle=orthogonalEdgeStyle;rounded=0;orthogonalLoop=1;jettySize=auto;html=1;exitX=1;exitY=0.5;exitDx=0;exitDy=0;entryX=0;entryY=0.5;entryDx=0;entryDy=0;" parent="1" source="8bmVJW7_Pttk3_VtEQQM-16" target="8bmVJW7_Pttk3_VtEQQM-17" edge="1">
          <mxGeometry relative="1" as="geometry" />
        </mxCell>
        <mxCell id="8bmVJW7_Pttk3_VtEQQM-16" value="&lt;font style=&quot;font-size: 14px;&quot;&gt;Discussion&lt;br&gt;&lt;/font&gt;" style="rounded=1;whiteSpace=wrap;html=1;" parent="1" vertex="1">
          <mxGeometry x="330" y="270" width="210" height="70" as="geometry" />
        </mxCell>
        <mxCell id="8bmVJW7_Pttk3_VtEQQM-17" value="&lt;font style=&quot;font-size: 14px;&quot;&gt;Conclusion and Recommendations&amp;nbsp;&lt;br&gt;&lt;/font&gt;" style="rounded=1;whiteSpace=wrap;html=1;" parent="1" vertex="1">
          <mxGeometry x="600" y="270" width="210" height="70" as="geometry" />
        </mxCell>
      </root>
    </mxGraphModel>
  </diagram>
</mxfile>
